<?xml version="1.0" encoding="utf-8"?>
<!-- Uploaded to: SVG Repo, www.svgrepo.com, Generator: SVG Repo Mixer Tools -->
<svg fill="#000000" version="1.1" id="Layer_1" xmlns="http://www.w3.org/2000/svg" xmlns:xlink="http://www.w3.org/1999/xlink" 
	 width="800px" height="800px" viewBox="0 0 256 241" enable-background="new 0 0 256 241" xml:space="preserve">
<path d="M254,188V2H2v186h111v29H75v22h106v-22h-38v-29H254z M19,19h217v151H19L19,19z M179.966,61.995
	c-1.298-2.503-2.874-4.264-4.728-5.284c-0.093-2.688-1.298-4.913-3.245-6.86c-2.318-2.318-5.377-3.523-8.714-3.523
	c-3.801-4.45-13.071-7.138-20.766-5.933c-3.801-1.854-8.714-1.761-12.051-1.761c-0.464,0-0.834,0-1.298,0h-0.464
	c-3.986,0-10.939-0.093-14.74,3.245c-3.708-1.483-9.548-0.834-14.276,0.556c-5.84,1.854-9.919,4.728-11.402,8.158
	c-3.801,0.927-8.621,4.357-11.495,8.529c-2.225,3.245-4.357,8.158-2.41,14.276c-2.225,5.748-1.02,11.959,3.245,16.872
	c4.357,5.099,10.939,7.324,16.779,5.748c3.245,0.371,5.655,0.185,7.324-0.185c0.371,2.874,1.483,6.582,4.728,9.178
	c1.298,2.966,3.801,5.191,7.045,6.118c3.708,1.02,7.787,0.371,10.846-1.761c1.112-0.093,2.41-0.185,3.801-0.464
	c-0.185,2.318,0,4.45,0.556,6.304c0.185,1.947,1.947,12.422,12.33,17.428c10.568,5.099,10.105,8.158,10.105,9.085
	c0,3.059,3.523,4.821,7.045,4.913c0.093,0,0.185,0,0.464,0c3.523,0,6.118-1.947,6.304-4.821c0.464-6.118-0.556-7.231-5.006-12.422
	c-1.483-1.761-2.41-4.821-2.967-6.86c2.039-0.464,3.894-1.112,5.655-2.039c2.688,0,5.284-1.02,7.231-2.967
	c1.947-1.947,3.059-4.357,3.245-7.138c6.304-4.357,9.456-14.091,7.602-23.917C183.674,79.608,183.303,68.762,179.966,61.995z
	 M169.861,106.956c-0.834,0.464-1.298,1.298-1.112,2.039c0.093,1.947-0.556,3.801-1.854,5.099c-1.112,1.112-2.688,1.761-4.172,1.761
	c-6.118-2.318-5.84-7.231-5.748-7.787c0.093-1.298-0.834-2.41-2.039-2.503s-2.41,0.834-2.503,2.039
	c-0.371,2.41,0.464,7.045,4.635,10.383c-2.874,0.834-6.582,1.112-11.495,1.112c-5.562,0-9.27-1.112-11.124-3.523
	c-1.391-1.761-1.761-4.264-1.112-7.324c6.767-1.298,8.992,1.854,9.085,2.039c0.464,0.649,1.112,1.112,1.947,1.112
	c0.371,0,0.834-0.093,1.112-0.371c1.112-0.556,1.483-2.039,0.927-3.059c-0.093-0.185-3.986-6.675-15.389-3.986l0,0
	c-2.318,0.464-4.357,0.649-6.118,0.834c-4.913-5.84-1.391-10.012-0.927-10.475c0.927-0.927,0.834-2.41-0.093-3.245
	c-0.927-0.927-2.41-0.834-3.245,0c-2.41,2.41-5.099,8.621-0.185,15.389c-1.576,0.556-3.523,0.649-5.191,0.185
	c-1.483-0.464-3.337-1.391-4.264-3.894c-0.093-0.464-0.464-0.834-0.834-1.02c-4.172-3.059-3.523-8.714-3.43-9.641
	c0.834-2.318,3.337-7.509,10.475-9.548c3.245-0.927,5.84-0.371,9.085,0.185c0.927,0.185,1.947,0.371,2.966,0.556
	c1.112,8.251,9.919,11.402,10.197,11.588c0.185,0.093,0.464,0.093,0.834,0.093c0.927,0,1.854-0.556,2.225-1.483
	c0.464-1.112-0.185-2.503-1.391-2.874c-0.093,0-5.655-2.039-7.045-6.86c7.602-0.185,10.383-5.933,10.661-9.085
	c0.093-1.298-0.649-2.41-1.947-2.503c-1.298-0.093-2.41,0.649-2.503,1.947c-0.093,0.464-0.927,5.099-6.675,5.099
	c-2.318,0-4.357-0.464-6.304-0.834c-3.43-0.649-7.045-1.391-11.217-0.093c-5.284,1.483-8.621,4.45-10.661,7.231
	c-1.483-2.039-3.708-3.337-5.562-4.357c-1.298-0.649-2.503-1.391-3.337-2.318c-2.039-2.039,0.371-6.304,0.371-6.304
	c0.649-1.02,0.371-2.503-0.834-3.059c-1.391-1.02-2.781-0.649-3.43,0.464c-1.576,2.781-3.43,8.251,0.371,12.051
	c1.298,1.298,2.874,2.225,4.357,2.966c3.059,1.761,4.821,2.874,4.821,5.84c-0.556,0.371-2.318,1.298-7.324,0.649
	c-0.371,0-0.556,0-0.927,0.093c-4.264,1.298-9.085-0.464-12.515-4.264c-3.337-3.801-4.172-8.621-2.225-12.886
	c0.185-0.556,0.185-1.112,0-1.761c-1.761-4.635-0.093-8.436,1.576-10.939c1.483-2.225,3.523-3.894,5.284-5.099
	c0.556,0.371,1.112,0.464,1.854,0.371c5.84-1.483,9.734,5.284,10.012,5.655c0.464,0.834,1.112,1.112,1.947,1.112
	c0.371,0,0.834-0.093,1.112-0.371c1.112-0.556,1.483-2.039,0.927-3.059c-0.185-0.371-3.43-6.118-9.178-7.787
	c0.834-2.225,3.986-4.357,8.621-5.748c5.933-1.854,10.661-1.391,11.681-0.556c3.523,5.099,1.391,7.972-1.391,11.588
	c-0.556,0.834-1.112,1.483-1.761,2.318c-4.635,6.86-1.298,12.051,1.298,13.905c0.464,0.371,0.927,0.464,1.391,0.464
	c0.649,0,1.391-0.371,1.854-0.927c0.834-1.02,0.556-2.41-0.464-3.245c-0.556-0.464-3.337-2.967-0.093-7.694
	c0.464-0.649,1.02-1.391,1.483-2.039c2.688-3.43,6.675-8.529,2.41-15.667c2.688-1.854,8.714-1.854,11.217-1.761h0.464
	c0.371,0,0.834,0,1.298,0c3.059,0,7.787,0,10.568,1.483c0.464,0.185,1.02,0.371,1.576,0.185c6.582-1.298,13.998,1.298,16.779,3.894
	c-1.298,2.503-3.43,8.158-2.225,13.442c1.391,6.211,1.576,7.787-3.43,9.641c-1.112,0.464-1.854,1.761-1.391,2.967
	c0.371,0.927,1.298,1.483,2.225,1.483c0.185,0,0.556,0,0.834-0.093c3.337-1.298,5.284-2.874,6.304-4.728
	c0.556,0.185,0.927,0.556,1.298,1.02c1.576,2.039,1.391,5.84,1.298,7.138c-0.185,1.298,0.649,2.41,1.947,2.688
	c0.093,0,0.185,0,0.371,0c1.112,0,2.039-0.834,2.318-1.947c0.093-0.649,0.927-6.675-2.225-10.661
	c-1.02-1.391-2.41-2.318-3.986-2.874c-0.093-1.854-0.464-3.801-0.927-5.748c-0.927-3.986,0.927-8.529,1.854-10.475
	c2.039,0.093,3.894,0.927,5.284,2.225c1.391,1.391,1.947,3.245,1.854,5.099c-0.093,1.112,0.649,2.318,1.854,2.503
	c1.112,0.185,2.41,1.483,3.337,3.43c2.688,5.377,2.966,14.74,0.834,20.209c0,0.093-0.093,0.093-0.093,0.093
	c-2.039,2.966-4.728,3.059-9.178,3.059c-1.483,0-2.874,0-4.45,0.093c-7.045,0.649-10.383,7.694-10.475,8.065
	c-0.556,1.112,0,2.503,1.112,3.059c0.371,0.093,0.649,0.185,0.927,0.185c0.927,0,1.761-0.464,2.039-1.391
	c0,0,2.41-4.913,6.767-5.377c1.298-0.093,2.688-0.093,3.986-0.093c3.059,0,6.397,0,9.27-1.576
	C177.092,97.685,174.496,104.36,169.861,106.956z M148.817,63.292c0.556,1.205,0.185,2.596-0.834,3.245
	c-0.278,0.278-0.649,0.371-1.112,0.371c-0.834,0-1.483-0.371-1.947-1.02c-0.093-0.185-3.523-5.469-10.105-4.357
	c-0.556,0.834-1.298,1.669-2.318,2.225c-0.464,0.278-0.927,0.649-1.391,0.834c-3.986,2.41-5.377,3.43-4.913,5.933
	c0.185,1.298-0.556,2.503-1.854,2.688c-0.278,0-0.371,0-0.464,0c-1.205,0-2.132-0.834-2.318-1.947
	c-1.02-5.84,3.337-8.343,7.138-10.661c0.464-0.278,0.927-0.649,1.391-0.834c2.596-1.669,1.576-6.767,1.576-6.767
	c-0.185-1.298,0.464-2.596,1.761-2.781c1.298-0.185,2.596,0.464,2.781,1.761c0,0.278,0.371,2.318,0.185,4.728
	C142.792,56.71,147.241,60.882,148.817,63.292z"/>
</svg>